<?xml version="1.0" encoding="utf-8"?>
<svg viewBox="-5700 -1100 4300 2800" xmlns="http://www.w3.org/2000/svg">
  <path style="stroke: rgb(0, 0, 0); stroke-width: 5px; transform-origin: -1564.65px 600.442px;" d="M -1614.795 602.003 L -1514.478 579.826 L -1524.139 601.756 L -1514.478 621.069 L -1614.478 601.756" transform="matrix(-1, 0, 0, -1, 0.000072, -0.000067)"/>
  <line style="fill: rgb(216, 216, 216); stroke: rgb(0, 0, 0); stroke-width: 5px;" x1="-4000" y1="-900" x2="-4000" y2="1600"/>
  <line style="fill: rgb(216, 216, 216); stroke: rgb(0, 0, 0); stroke-width: 5px; transform-origin: -3600px 600.002px;" x1="-1599.989" y1="600" x2="-5599.992" y2="600"/>
  <path style="stroke: rgb(0, 0, 0); stroke-width: 5px; transform-origin: -3998.61px -931.071px;" d="M -4048.758 -929.507 L -3948.441 -951.684 L -3958.102 -929.754 L -3948.441 -910.441 L -4048.441 -929.754" transform="matrix(0, 1, -1, 0, 0.000078, -0.000124)"/>
  <line style="fill: rgb(216, 216, 216); stroke: rgb(0, 0, 0); stroke-width: 5px;" x1="-4900" y1="1500" x2="-2600" y2="-800"/>
  <line style="fill: rgb(216, 216, 216); stroke-width: 5px; stroke: rgb(253, 1, 1);" x1="-4299.762" y1="898.284" x2="-3700.001" y2="302.062"/>
  <line style="fill: rgb(216, 216, 216); stroke-width: 5px; stroke: rgb(253, 1, 1);" x1="-3699.762" y1="900" x2="-3100" y2="303.778"/>
  <line style="fill: rgb(216, 216, 216); stroke-width: 5px; stroke: rgb(253, 1, 1);" x1="-3099.761" y1="900" x2="-2500" y2="303.778"/>
  <line style="fill: rgb(216, 216, 216); stroke-width: 5px; stroke: rgb(253, 1, 1);" x1="-4899.761" y1="896.222" x2="-4300" y2="300"/>
  <text style="white-space: pre; fill: rgb(51, 51, 51); font-family: Arial, sans-serif; font-size: 80.4px;" x="-1626.036" y="-47.513"> </text>
  <text style="white-space: pre; fill: rgb(51, 51, 51); font-family: Arial, sans-serif; font-size: 80.4px;" x="-2150.542" y="200.601"> </text>
  <line style="fill: rgb(216, 216, 216); stroke: rgb(0, 0, 0); stroke-width: 5px; stroke-dasharray: 20;" x1="-3700.253" y1="302.074" x2="-3700" y2="600"/>
  <line style="fill: rgb(216, 216, 216); stroke: rgb(0, 0, 0); stroke-width: 5px; stroke-dasharray: 20;" x1="-4305.922" y1="596.656" x2="-4300" y2="900"/>
</svg>